<svg width="280" height="180" xmlns="http://www.w3.org/2000/svg" viewBox="920 50 310 120">
  <g>
    <path d="M1067.88 122.418C1065.12 122.267 1062.42 121.289 1060.5 119.404 1058.75 117.689 1057.93 115.547 1057.33 111.609 1057.03 109.591 1056.88 107.556 1056.84 105.529 1056.75 99.5467 1056.59 93.5733 1056.74 87.6 1056.9 80.9689 1057 61.7511 1056.81 60.9156 1056.63 60.0978 1054.09 61.7511 1053.25 62.3378 1051.65 63.4578 1049.48 66.8711 1049.48 68.9422 1049.46 71.8222 1049.52 74.8533 1049.53 77.7333 1049.58 90.2311 1049.65 102.72 1049.73 115.218 1049.73 116.373 1049.69 117.538 1049.86 118.676 1049.86 118.693 1049.86 118.72 1049.87 118.738 1050.52 123.004 1054.36 126.249 1058.93 126.533 1063.88 126.836 1069.98 126.116 1072.6 124.898 1073.4 124.489 1076.81 123.307 1078.16 122.071 1076.13 122 1071.89 122.658 1067.88 122.436" fill="#082F4F"/>
    <path d="M1222.83 107.76C1222.6 105.618 1221.77 101.44 1220.13 99.8756 1216.12 96.0356 1214.61 95.5733 1203.88 95.5733 1197.98 95.5733 1199.52 95.4133 1187 95.4578 1185.48 95.4578 1184.12 95.3956 1182.45 95.3956 1181.13 95.3956 1186.12 92.5956 1186.95 92.1511 1197.83 86.2844 1199.5 75.0489 1199.4 71.1911 1199 54.9511 1173.91 54.9511 1169 54.9511 1168.96 55.4044 1169.75 55.7867 1171.15 56.0711 1175.61 56.9778 1175.96 56.4089 1184.29 59.2622 1190.05 61.2267 1195.72 64.1689 1195.24 71.2889 1194.98 75.1378 1192.93 78.4 1190.08 81.7867 1186.33 86.2489 1182.63 88.2311 1177.51 91.12 1174.13 93.0311 1163.83 97.4578 1158.87 99.5911 1157.61 100.133 1157.62 101.787 1158.84 102.382 1159.47 102.684 1160.07 102.862 1160.6 102.862 1167.33 102.844 1177.12 102.409 1183.86 102.4 1191.62 102.391 1199.39 102.231 1207.13 102.551 1212.52 102.782 1216.57 103.796 1219.88 108.747 1220.49 109.662 1220.44 110.747 1220.31 111.404 1220.21 111.92 1218.15 110.96 1216.92 110.258 1214.53 108.907 1210.99 107.209 1208.2 107.209 1206.48 107.209 1207.69 107.209 1206.05 107.209 1187.68 107.262 1169.43 107.298 1151.06 107.316 1145.15 107.316 1144.29 107.884 1144.52 102.364 1144.69 97.9467 1143.32 94.0089 1140.73 90.4444 1138.76 87.7333 1135.98 82.8089 1134.54 79.0667 1134.35 78.5422 1133.64 78.4 1133.22 78.7822 1131.96 79.9022 1130.93 80.9067 1130.15 82.0978 1129.72 82.7378 1128.62 84.24 1127.68 85.5467 1127.5 85.7689 1127.31 86.0356 1127.11 86.3378 1127.09 86.3556 1127.08 86.3822 1127.06 86.4089 1127.06 86.4089 1127.06 86.4089 1127.06 86.4089 1125.41 88.8889 1123.3 93.4756 1122.99 94.1244 1121.41 97.3511 1121.92 100.284 1124.6 102.836 1125.54 103.716 1127.96 105.627 1128.91 106.507 1130.13 107.653 1132.21 108.604 1133.6 109.564 1134.37 110.098 1135.32 111.262 1134.69 111.556 1133.82 111.787 1133.77 111.458 1132.95 110.88 1132.28 110.418 1132.15 110.053 1128.42 108.427 1124.13 106.56 1112.27 107.164 1109.4 107.164 1107.62 107.164 1106.84 107.547 1106.2 106.071 1105.72 104.987 1105.57 103.884 1105.53 102.764 1105.53 102.382 1105.52 102 1105.51 101.609L1105.51 101.582C1105.5 98.0178 1105.47 94.4533 1105.43 90.8889 1105.44 89.7956 1105.45 88.7022 1105.48 87.6089 1105.64 80.9778 1105.73 61.76 1105.55 60.9244 1105.36 60.1067 1102.83 61.76 1101.99 62.3467 1100.39 63.4667 1098.23 66.88 1098.21 68.9511 1098.19 71.8311 1098.26 74.8622 1098.27 77.7422 1098.3 87.5289 1098.36 97.3067 1098.43 107.093 1098.36 109.396 1098.36 111.582 1098.46 113.573 1098.28 114.142 1098.68 116.916 1100.67 121.804 1100.9 122.373 1101.2 122.418 1101.53 122.347 1101.66 122.018 1101.81 121.787 1102 121.476 1102.12 121.129 1102.29 120.8 1102.46 120.462 1102.98 119.271 1103.76 118.187 1104.8 117.333 1104.81 117.324 1104.82 117.307 1104.84 117.298 1104.92 117.227 1104.99 117.129 1105.08 117.067 1105.12 117.022 1105.17 116.987 1105.23 116.951 1105.3 116.898 1105.38 116.853 1105.45 116.8 1106.18 116.258 1107 115.796 1107.98 115.493 1109 115.12 1110.14 114.898 1111.45 114.898 1111.56 114.898 1111.65 114.916 1111.75 114.916 1112.07 114.889 1112.39 114.88 1112.72 114.889L1114.71 114.889C1114.87 114.889 1115.02 114.916 1115.17 114.924 1119.99 114.853 1129.6 115.022 1134.28 117.796 1135.49 118.516 1136.61 118.302 1137.46 117.129 1138.09 116.258 1138.94 114.498 1139.66 113.698 1140.47 112.782 1141.46 112.107 1142.86 112.596 1146.96 114.027 1151.31 114.978 1155.56 114.987 1173.94 115.022 1192.31 114.907 1210.68 114.907 1219.36 114.907 1219.42 122.169 1220.49 122.169 1221.73 122.169 1222.74 116.258 1223.11 114.836 1223.65 112.729 1222.87 108.169 1222.83 107.787M1139.77 103.929C1138.92 104.684 1136.11 103.378 1135.36 102.649 1133.31 100.658 1132.44 99.8933 1130.6 97.68 1129.6 96.4622 1128.88 96.0622 1128.2 94.5778 1127.32 92.6578 1127.55 90.5333 1127.97 88.7467 1128.12 88.1333 1128.94 87.9289 1129.4 88.3822 1130.02 88.9778 1130.54 89.6356 1130.78 89.8756 1130.97 90.0711 1135.56 95.8933 1137.73 98.56 1138.67 99.6978 1140.47 103.289 1139.77 103.92" fill="#082F4F"/>
    <path d="M1038.88 95.1733C1038.03 93.9644 1037.16 94.5956 1036.12 95.8044 1033.29 99.0844 1032.88 102.64 1035.92 105.707 1037.56 107.36 1041.69 111.653 1039.61 116.613 1035.76 112.018 1033.16 110.889 1028.93 109.982 1024.9 109.12 1020.26 108.436 1016.08 108.311 1005.26 107.982 995.004 108.231 984.053 109.244 973.813 110.196 955.093 111.529 941.52 104.516 938.4 102.898 934.071 100.142 933.369 100.631 934.356 102.596 939.787 107.778 943.209 109.769 946.391 111.671 948.951 112.969 952.391 114.356 957.591 116.071 960.96 116.596 966.16 117.049 973.378 117.68 980.676 117.538 987.911 116.996 992.684 116.631 997.44 115.884 1002.21 115.707 1008.53 115.458 1014.86 115.556 1021.19 115.582 1027.45 115.609 1033.19 118.631 1037.34 123.147 1039.2 124.667 1039.81 123.013 1040.9 121.129 1042.32 119.404 1045.95 111.689 1045.52 109.582 1044.54 104.791 1041.73 99.1911 1038.89 95.1733" fill="#082F4F"/>
    <path d="M1072.68 99.7511C1074.2 101.333 1075.65 101.947 1077.2 102.596 1078.75 103.244 1080.76 103.698 1082.62 103.627 1085.49 103.511 1087.87 101.813 1089.34 99.2978 1089.61 98.8444 1092.29 93.4667 1092.23 93.1822 1092.13 92.7022 1089.6 96.2756 1088.11 96.4 1084.68 96.6844 1082.08 96.5156 1079.6 94.2489 1075.4 89.5822 1073.99 90.24 1071.45 94.5422 1071.34 94.7467 1068.86 99.3511 1067.06 102.764 1066.29 103.893 1065.64 105.129 1065.33 106.062 1065.24 106.24 1065.18 106.373 1065.17 106.4 1065.15 106.489 1065.17 106.489 1065.23 106.444 1065.21 106.524 1065.17 106.613 1065.16 106.684 1064.89 108.222 1067.45 108.764 1068.92 109.716 1071.47 111.36 1070.03 111.271 1067.57 113.387 1067.26 113.653 1063.32 116.258 1063.5 116.684 1063.69 117.111 1067.65 115.671 1068.04 115.573 1068.88 115.369 1071.12 115.138 1071.32 115.12 1076.61 114.773 1080.36 115.333 1085.65 114.916 1087.76 114.747 1089.59 113.102 1090.42 111.298 1091.24 109.493 1092.98 107.636 1090.82 107.582 1087.76 107.502 1082.37 108.009 1079.32 107.724 1077.74 107.573 1075.34 106.569 1074.05 105.653 1072.2 104.347 1070.71 103.138 1069.72 101.067 1070.93 99.8578 1072.07 99.0933 1072.68 99.7333" fill="#082F4F"/>
    <path d="M1003.67 88.0178C1006.1 88.1244 1007.72 86.9956 1007.77 85.1822 1007.81 83.4578 1006.48 82.3467 1004.27 82.2667 1001.98 82.1867 1000.25 83.4044 1000.12 85.1733 1000.01 86.8267 1001.38 87.92 1003.67 88.0178" fill="#082F4F"/>
    <path d="M1125.35 75.7778C1127.78 75.8844 1129.4 74.7556 1129.45 72.9422 1129.49 71.2178 1128.16 70.1067 1125.95 70.0267 1123.66 69.9467 1121.93 71.1644 1121.8 72.9333 1121.69 74.5867 1123.06 75.68 1125.35 75.7778" fill="#082F4F"/>
    <path d="M994.436 88.1778C996.604 88.0622 997.778 86.9511 997.724 85.0489 997.671 83.1556 996.507 82.2311 994.178 82.2489 991.867 82.2667 990.72 83.2 990.658 85.0933 990.596 87.1111 992.053 88.2933 994.444 88.1778" fill="#082F4F"/>
    <!-- KBS text -->
    <path d="M1110.14 139.404 1105.64 143.36C1105.22 142.044 1105.01 140.729 1105.01 139.431 1105.01 135.067 1106.78 131.573 1110.33 128.933 1113.88 126.293 1118.58 124.978 1124.44 124.978L1126.63 124.978C1125.79 128.853 1125.29 131.449 1125.12 132.782L1124.19 140.364C1132.78 130.169 1139.85 125.076 1145.39 125.076 1146.76 125.076 1148.07 125.244 1149.31 125.582L1145.74 129.129C1144.71 128.569 1143.56 128.293 1142.29 128.293 1139.92 128.293 1137.45 129.324 1134.87 131.387 1132.29 133.449 1130.2 136.08 1128.58 139.271 1130.3 142.347 1132.32 145.324 1134.61 148.196L1137.59 151.902C1139.58 154.382 1141.13 155.627 1142.23 155.627 1143.72 155.627 1145.08 154.64 1146.32 152.658 1146.82 153.049 1147.07 153.369 1147.07 153.618 1147.07 154.613 1146.26 155.822 1144.65 157.244 1143.04 158.667 1141.67 159.369 1140.55 159.369 1138.52 159.369 1135.67 156.969 1131.99 152.169 1128.68 147.831 1126.07 143.893 1124.18 140.382L1123.59 145.173 1123.23 147.991C1122.92 150.391 1122.35 152.124 1121.54 153.191 1120.72 154.258 1119.16 155.298 1116.84 156.311L1123.34 156.693 1120.04 159.636 1108.08 159.076 1111.61 155.938 1114.62 156.24C1116.87 154.933 1118.25 152.276 1118.76 148.258L1119.07 145.804 1121.21 128.062 1120.36 128.062C1112.68 128.062 1108.85 130.382 1108.85 135.031 1108.85 136.489 1109.29 137.947 1110.15 139.413" fill="#082F4F"/>
    <path d="M1152.44 158.471 1155.95 155.022 1156.8 155.2C1157.9 155.458 1158.95 155.644 1159.95 155.769 1161.44 154.924 1162.44 153.911 1162.97 152.72 1163.49 151.529 1163.96 149.218 1164.39 145.769L1166.69 126.702C1162.87 126.96 1159.81 127.902 1157.54 129.538 1155.25 131.173 1154.12 133.236 1154.12 135.716 1154.12 137.2 1154.52 138.604 1155.33 139.92L1150.89 143.511C1150.51 142.213 1150.31 140.898 1150.31 139.556 1150.31 134.996 1152.43 131.253 1156.68 128.338 1160.92 125.422 1166.35 123.964 1172.95 123.964 1181.48 123.964 1185.73 126.213 1185.73 130.702 1185.73 134.533 1182.77 137.591 1176.86 139.884 1182.65 141.813 1185.55 144.773 1185.55 148.773 1185.55 152.018 1183.75 154.613 1180.16 156.542 1176.57 158.471 1171.77 159.431 1165.75 159.431 1162.05 159.431 1157.62 159.111 1152.44 158.471M1169.31 141.947 1168.9 145.342 1168.65 147.467C1168.34 149.982 1167.79 151.751 1167 152.773 1166.22 153.796 1164.56 154.898 1162.02 156.08 1165.66 156.631 1169.26 156.907 1172.82 156.907 1178.58 156.907 1181.45 154.809 1181.45 150.622 1181.45 148.818 1180.66 147.067 1179.08 145.387 1177.5 143.707 1175.57 142.56 1173.31 141.956L1172.59 141.982 1171.26 142.036 1170.04 141.982 1169.3 141.956ZM1171.16 126.507 1169.55 139.893C1170.63 139.982 1171.57 140.018 1172.36 140.018 1173.24 140.018 1174.31 139.956 1175.54 139.84 1179.46 137.769 1181.42 135.28 1181.42 132.364 1181.42 128.462 1178 126.507 1171.16 126.507" fill="#082F4F"/>
    <path d="M1190.12 154.596 1194.83 151.982C1195.56 156.142 1198.28 158.222 1202.99 158.222 1205.27 158.222 1207.14 157.653 1208.6 156.507 1210.05 155.369 1210.78 153.902 1210.78 152.107 1210.78 149.653 1209.16 147.218 1205.94 144.809L1202.59 142.32C1199.89 140.293 1198.1 138.693 1197.19 137.52 1196.28 136.347 1195.84 135.022 1195.84 133.547 1195.84 130.773 1197.05 128.489 1199.46 126.676 1201.87 124.871 1204.92 123.964 1208.6 123.964 1211.52 123.964 1214.29 124.604 1216.91 125.893L1215.31 129.262 1214.59 130.756C1214.18 131.636 1213.71 132.071 1213.16 132.071 1212.92 132.071 1212.67 131.982 1212.41 131.813 1212.72 130.933 1212.88 130.231 1212.88 129.698 1212.88 128.613 1212.23 127.707 1210.93 126.978 1209.64 126.249 1208.03 125.884 1206.12 125.884 1201.77 125.884 1199.6 127.529 1199.6 130.827 1199.6 132.009 1200.08 133.147 1201.05 134.24 1202.02 135.333 1204.03 137.022 1207.08 139.298L1209.76 141.324C1213.16 143.867 1214.87 146.524 1214.87 149.316 1214.87 152.391 1213.46 154.951 1210.63 157.004 1207.8 159.049 1204.28 160.071 1200.04 160.071 1194.89 160.071 1191.59 158.24 1190.13 154.569" fill="#082F4F"/>
  </g>
</svg>